# xmcd
#
# Track frame offsets: 
#        150
#        15132
#        29521
#        46516
#        65737
#        77184
#        92476
#        111682
#        126889
#        137124
#        155883
#        179382
#
# Disc length: 2499 seconds
#
# Revision: 8
# Processed by: cddbd v1.5.2PL0 Copyright (c) Steve Scherf et al.
# Submitted via: ExactAudioCopy v0.95b4
#
DISCID=a009c10c
DTITLE=Mecano - Mecano
DYEAR=2005
DGENRE=Pop
TTITLE0=Hoy no me puedo levantar
TTITLE1=No me enseñen la lección
TTITLE2=Perdido en mi habitación
TTITLE3=Cenando en París
TTITLE4=Maquillaje
TTITLE5=Boda en Londres
TTITLE6=Me colé en una fiesta
TTITLE7=La máquina de vapor
TTITLE8=Me voy de casa
TTITLE9=254.13.26
TTITLE10=El fin del mundo
TTITLE11=Solo soy una persona
EXTD=CBS 462594 2\nArreglos: Luis Cobos\nEs una produccion de CBS diri
EXTD=gida por Jorge Alvarez\n
EXTT0=
EXTT1=
EXTT2=
EXTT3=
EXTT4=
EXTT5=
EXTT6=
EXTT7=
EXTT8=
EXTT9=
EXTT10=
EXTT11=
PLAYORDER=
